# xmcd
#
# Track frame offsets: 
#        150
#        14865
#        32520
#        49168
#        67785
#        84872
#        108812
#        124101
#        139015
#        156076
#        168344
#        185117
#
# Disc length: 2667 seconds
#
# Revision: 0
# Processed by: cddbd v1.5.2PL0 Copyright (c) Steve Scherf et al.
# Submitted via: ExactAudioCopy v0.99pb4
#
DISCID=960a690c
DTITLE=Barron, John - My love to you
DYEAR=1996
DGENRE=Rock and Roll
TTITLE0=Way to Memphis
TTITLE1=Bring back the good old days
TTITLE2=Symphonie of life
TTITLE3=We are dreaming
TTITLE4=Secret love
TTITLE5=My love to you
TTITLE6=Make up your mind
TTITLE7=Girl on the phone
TTITLE8=I'll try to love you
TTITLE9=Fear
TTITLE10=Farewell my love
TTITLE11=My love to you (Sun-Studio)
EXTD=
EXTT0=
EXTT1=
EXTT2=
EXTT3=
EXTT4=
EXTT5=
EXTT6=
EXTT7=
EXTT8=
EXTT9=
EXTT10=
EXTT11=
PLAYORDER=
